<svg width="403" height="409" viewBox="0 0 403 409" fill="none" xmlns="http://www.w3.org/2000/svg">
<path d="M292.48 168.05C292.48 157.76 292.51 147.46 292.47 137.17C292.35 107.23 305.87 85.07 330.95 69.43C345.64 60.27 361.85 55.07 379.59 50.25C379.59 56.72 379.71 62.61 379.57 68.5C379.16 84.69 377.53 100.69 371.33 115.87C362.81 136.75 347.33 151.12 327 159.48C313.38 165.08 304.27 174.14 296.71 186.21C285.93 203.42 274.16 220 259.16 233.94C239.27 252.43 215.29 261.31 188.57 262.44C145.87 264.25 111.05 247.1 82.3396 216.32C80.5396 214.4 79.0596 212.18 77.0796 209.66C80.2896 208.23 83.1596 206.63 86.2396 205.77C87.2896 205.48 89.2796 206.71 90.1296 207.8C101.39 222.34 114.88 234.27 131.07 243.03C171.71 265.02 220.54 260.05 254.74 232.23C267.53 221.82 275.86 208.06 286.11 195.67C303.33 174.86 310.93 149.29 323.34 126.13C333.92 106.37 345.49 87.43 360.88 71.01C361.31 70.55 361.61 69.95 362.07 69.26C356.23 70.41 335.69 94.03 322.49 114.27C311.38 131.31 302.07 149.28 294.46 168.14C293.8 168.11 293.14 168.08 292.48 168.05Z" fill="white"/>
<path d="M286.139 170.18C275.629 150.96 258.899 142.03 239.549 136.7C255.189 145.87 270.279 155.68 281.389 169.62C274.359 169.62 267.159 170.2 260.089 169.5C243.499 167.86 231.439 158.77 222.779 144.92C218.379 137.89 214.329 130.65 210.109 123.48C251.999 108.93 283.929 135.59 286.139 170.18Z" fill="white"/>
<path d="M312.999 64.5203C297.209 44.6303 277.949 29.0303 255.189 17.9403C236.279 8.73032 216.199 3.78032 195.179 2.67032C159.269 0.780318 126.069 9.57032 96.3195 29.5703C65.5895 50.2403 43.9795 78.0903 32.7495 113.91C21.5595 149.6 22.9995 184.75 37.4195 218.78C57.0295 265.06 91.0695 297.25 139.279 312.04C204.579 332.07 261.519 316.05 308.779 267.12C331.729 243.36 344.409 214.1 349.199 181.46C349.629 178.51 349.519 175.47 349.719 172.48C349.899 169.7 350.149 166.92 350.369 164.13C350.889 164.15 351.419 164.17 351.939 164.19C351.529 169.93 351.519 175.74 350.649 181.41C347.699 200.75 341.969 219.19 332.809 236.61C322.299 256.58 307.769 273.05 290.169 286.86C267.629 304.54 242.259 316.34 213.829 320.29C171.769 326.14 132.139 318.73 96.5995 294.79C57.4695 268.44 33.0695 232.11 25.2695 185.18C18.8395 146.44 26.0995 110.12 46.7095 77.0203C71.0795 37.8703 106.329 13.3403 151.659 3.76032C172.229 -0.589678 193.009 -1.37968 213.629 2.52032C242.909 8.06032 269.459 19.9203 291.639 40.2603C299.559 47.5203 306.789 55.5103 314.329 63.1703C313.879 63.6203 313.439 64.0703 312.999 64.5203Z" fill="white"/>
<path d="M19.1142 397.93V372.1H22.8042V397.93H19.1142ZM2.6937 397.93V372.1H6.3837V397.93H2.6937ZM5.7564 386.27V383.244H19.926V386.27H5.7564ZM34.6641 397.93L44.1474 372.1H48.1695L57.6528 397.93H53.7045L46.14 376.528L38.5386 397.93H34.6641ZM38.9445 391.546L39.9777 388.594H52.1178L53.151 391.546H38.9445ZM69.451 397.93V372.1H78.2701C80.3365 372.1 82.0339 372.445 83.3623 373.133C84.6907 373.822 85.6747 374.745 86.3143 375.901C86.9539 377.057 87.2737 378.373 87.2737 379.849C87.2737 381.251 86.9539 382.543 86.3143 383.724C85.6993 384.88 84.7276 385.815 83.3992 386.528C82.0708 387.217 80.3611 387.561 78.2701 387.561H73.141V397.93H69.451ZM73.141 384.499H78.1225C80.0659 384.499 81.4435 384.08 82.2553 383.244C83.0917 382.383 83.5099 381.251 83.5099 379.849C83.5099 378.349 83.0917 377.192 82.2553 376.381C81.4435 375.569 80.0659 375.163 78.1225 375.163H73.141V384.499ZM99.3703 397.93V372.1H108.189C110.256 372.1 111.953 372.445 113.282 373.133C114.61 373.822 115.594 374.745 116.234 375.901C116.873 377.057 117.193 378.373 117.193 379.849C117.193 381.251 116.873 382.543 116.234 383.724C115.619 384.88 114.647 385.815 113.318 386.528C111.99 387.217 110.28 387.561 108.189 387.561H103.06V397.93H99.3703ZM103.06 384.499H108.042C109.985 384.499 111.363 384.08 112.175 383.244C113.011 382.383 113.429 381.251 113.429 379.849C113.429 378.349 113.011 377.192 112.175 376.381C111.363 375.569 109.985 375.163 108.042 375.163H103.06V384.499ZM135.424 397.93V388.336L126.9 372.1H131.069L137.748 385.679H136.826L143.468 372.1H147.601L139.114 388.336V397.93H135.424ZM188.247 398.373C185.763 398.373 183.573 397.819 181.679 396.712C179.81 395.581 178.334 394.019 177.251 392.026C176.193 390.009 175.664 387.672 175.664 385.015C175.664 382.383 176.193 380.071 177.251 378.078C178.334 376.061 179.81 374.486 181.679 373.355C183.573 372.223 185.763 371.657 188.247 371.657C190.781 371.657 192.995 372.223 194.889 373.355C196.784 374.486 198.247 376.061 199.28 378.078C200.338 380.071 200.867 382.383 200.867 385.015C200.867 387.672 200.338 390.009 199.28 392.026C198.247 394.019 196.784 395.581 194.889 396.712C192.995 397.819 190.781 398.373 188.247 398.373ZM188.284 395.089C190.055 395.089 191.605 394.683 192.934 393.871C194.262 393.059 195.283 391.903 195.996 390.403C196.734 388.902 197.103 387.106 197.103 385.015C197.103 382.924 196.734 381.128 195.996 379.628C195.283 378.127 194.262 376.983 192.934 376.196C191.605 375.384 190.055 374.978 188.284 374.978C186.513 374.978 184.963 375.384 183.635 376.196C182.306 376.983 181.273 378.127 180.535 379.628C179.797 381.128 179.428 382.924 179.428 385.015C179.428 387.106 179.797 388.902 180.535 390.403C181.273 391.903 182.306 393.059 183.635 393.871C184.963 394.683 186.513 395.089 188.284 395.089ZM222.946 398.373C221.126 398.373 219.477 398.016 218.001 397.303C216.525 396.565 215.345 395.458 214.459 393.982C213.598 392.481 213.168 390.575 213.168 388.262V372.1H216.858V388.299C216.858 389.849 217.116 391.128 217.632 392.137C218.149 393.121 218.862 393.859 219.773 394.351C220.707 394.818 221.79 395.052 223.02 395.052C224.274 395.052 225.357 394.818 226.267 394.351C227.177 393.859 227.878 393.121 228.37 392.137C228.887 391.128 229.145 389.849 229.145 388.299V372.1H232.835V388.262C232.835 390.575 232.392 392.481 231.507 393.982C230.621 395.458 229.428 396.565 227.928 397.303C226.427 398.016 224.766 398.373 222.946 398.373ZM252.099 397.93V375.126H244.46V372.1H263.464V375.126H255.789V397.93H252.099ZM275.318 397.93V372.1H283.252C286.253 372.1 288.738 372.629 290.706 373.687C292.674 374.745 294.125 376.245 295.06 378.189C296.019 380.107 296.499 382.395 296.499 385.052C296.499 387.709 296.019 389.997 295.06 391.915C294.125 393.834 292.674 395.323 290.706 396.38C288.762 397.414 286.278 397.93 283.252 397.93H275.318ZM279.008 394.831H283.104C285.49 394.831 287.385 394.437 288.787 393.65C290.189 392.863 291.185 391.743 291.776 390.292C292.391 388.816 292.698 387.069 292.698 385.052C292.698 383.01 292.391 381.251 291.776 379.775C291.185 378.299 290.189 377.168 288.787 376.381C287.385 375.593 285.49 375.2 283.104 375.2H279.008V394.831ZM320.681 398.373C318.196 398.373 316.007 397.819 314.113 396.712C312.243 395.581 310.767 394.019 309.685 392.026C308.627 390.009 308.098 387.672 308.098 385.015C308.098 382.383 308.627 380.071 309.685 378.078C310.767 376.061 312.243 374.486 314.113 373.355C316.007 372.223 318.196 371.657 320.681 371.657C323.215 371.657 325.429 372.223 327.323 373.355C329.217 374.486 330.681 376.061 331.714 378.078C332.772 380.071 333.301 382.383 333.301 385.015C333.301 387.672 332.772 390.009 331.714 392.026C330.681 394.019 329.217 395.581 327.323 396.712C325.429 397.819 323.215 398.373 320.681 398.373ZM320.718 395.089C322.489 395.089 324.039 394.683 325.367 393.871C326.696 393.059 327.717 391.903 328.43 390.403C329.168 388.902 329.537 387.106 329.537 385.015C329.537 382.924 329.168 381.128 328.43 379.628C327.717 378.127 326.696 376.983 325.367 376.196C324.039 375.384 322.489 374.978 320.718 374.978C318.947 374.978 317.397 375.384 316.068 376.196C314.74 376.983 313.707 378.127 312.969 379.628C312.231 381.128 311.862 382.924 311.862 385.015C311.862 387.106 312.231 388.902 312.969 390.403C313.707 391.903 314.74 393.059 316.068 393.871C317.397 394.683 318.947 395.089 320.718 395.089ZM357.483 398.373C354.998 398.373 352.809 397.819 350.915 396.712C349.045 395.581 347.569 394.019 346.487 392.026C345.429 390.009 344.9 387.672 344.9 385.015C344.9 382.383 345.429 380.071 346.487 378.078C347.569 376.061 349.045 374.486 350.915 373.355C352.809 372.223 354.998 371.657 357.483 371.657C360.017 371.657 362.231 372.223 364.125 373.355C366.019 374.486 367.483 376.061 368.516 378.078C369.574 380.071 370.103 382.383 370.103 385.015C370.103 387.672 369.574 390.009 368.516 392.026C367.483 394.019 366.019 395.581 364.125 396.712C362.231 397.819 360.017 398.373 357.483 398.373ZM357.52 395.089C359.291 395.089 360.841 394.683 362.169 393.871C363.498 393.059 364.518 391.903 365.232 390.403C365.97 388.902 366.339 387.106 366.339 385.015C366.339 382.924 365.97 381.128 365.232 379.628C364.518 378.127 363.498 376.983 362.169 376.196C360.841 375.384 359.291 374.978 357.52 374.978C355.749 374.978 354.199 375.384 352.87 376.196C351.542 376.983 350.509 378.127 349.771 379.628C349.033 381.128 348.664 382.924 348.664 385.015C348.664 387.106 349.033 388.902 349.771 390.403C350.509 391.903 351.542 393.059 352.87 393.871C354.199 394.683 355.749 395.089 357.52 395.089ZM382.661 397.93V372.1H391.407C393.448 372.1 395.121 372.445 396.425 373.133C397.729 373.822 398.688 374.745 399.303 375.901C399.943 377.032 400.263 378.324 400.263 379.775C400.263 381.153 399.943 382.432 399.303 383.613C398.688 384.769 397.717 385.704 396.388 386.417C395.06 387.106 393.362 387.451 391.296 387.451H386.351V397.93H382.661ZM396.241 397.93L390.669 386.454H394.728L400.521 397.93H396.241ZM386.351 384.646H391.148C392.969 384.646 394.309 384.203 395.17 383.318C396.031 382.408 396.462 381.251 396.462 379.849C396.462 378.422 396.044 377.291 395.207 376.454C394.371 375.618 393.018 375.2 391.148 375.2H386.351V384.646Z" fill="white"/>
</svg>
